<svg width="132" height="69" viewBox="0 0 132 69" fill="none" xmlns="http://www.w3.org/2000/svg">
<path d="M111.646 49H20.3542C9.0687 49 0 37.8416 0 24.5C0 10.9158 9.0687 0 20.3542 0H111.646C122.931 0 132 10.9158 132 24.5C132 37.8416 122.931 49 111.646 49Z" fill="#7E0BF2"/>
<path d="M27.3066 19.9697H22.5156V33H19.293V19.9697H14.5664V17.3594H27.3066V19.9697ZM33.333 33.2148C31.6286 33.2148 30.2393 32.6921 29.165 31.6465C28.098 30.6009 27.5645 29.208 27.5645 27.4678V27.167C27.5645 25.9997 27.79 24.9577 28.2412 24.041C28.6924 23.1172 29.3298 22.4082 30.1533 21.9141C30.984 21.4128 31.9294 21.1621 32.9893 21.1621C34.5791 21.1621 35.8288 21.6634 36.7383 22.666C37.6549 23.6686 38.1133 25.0902 38.1133 26.9307V28.1982H30.7119C30.8122 28.9574 31.113 29.5661 31.6143 30.0244C32.1227 30.4827 32.7637 30.7119 33.5371 30.7119C34.7331 30.7119 35.6676 30.2786 36.3408 29.4121L37.8662 31.1201C37.4007 31.779 36.7705 32.2946 35.9756 32.667C35.1807 33.0322 34.2998 33.2148 33.333 33.2148ZM32.9785 23.6758C32.3626 23.6758 31.8613 23.8835 31.4746 24.2988C31.0951 24.7142 30.8516 25.3086 30.7441 26.082H35.0625V25.835C35.0482 25.1475 34.862 24.6175 34.5039 24.2451C34.1458 23.8656 33.6374 23.6758 32.9785 23.6758ZM46.417 24.2881C45.9945 24.2308 45.6221 24.2021 45.2998 24.2021C44.1253 24.2021 43.3555 24.5996 42.9902 25.3945V33H39.8857V21.377H42.8184L42.9043 22.7627C43.5273 21.6956 44.3903 21.1621 45.4932 21.1621C45.8369 21.1621 46.1592 21.2087 46.46 21.3018L46.417 24.2881ZM50.832 21.377L50.9287 22.6768C51.7523 21.667 52.8659 21.1621 54.2695 21.1621C55.7663 21.1621 56.7939 21.7529 57.3525 22.9346C58.1689 21.7529 59.3327 21.1621 60.8438 21.1621C62.1042 21.1621 63.0423 21.5309 63.6582 22.2686C64.2741 22.999 64.582 24.1019 64.582 25.5771V33H61.4668V25.5879C61.4668 24.929 61.3379 24.4492 61.0801 24.1484C60.8223 23.8405 60.3675 23.6865 59.7158 23.6865C58.7848 23.6865 58.1403 24.1305 57.7822 25.0186L57.793 33H54.6885V25.5986C54.6885 24.9255 54.556 24.4385 54.291 24.1377C54.026 23.8369 53.5749 23.6865 52.9375 23.6865C52.0566 23.6865 51.4193 24.0518 51.0254 24.7822V33H47.9209V21.377H50.832ZM70.2539 33H67.1387V21.377H70.2539V33ZM66.9561 18.3691C66.9561 17.9036 67.11 17.5205 67.418 17.2197C67.7331 16.9189 68.1592 16.7686 68.6963 16.7686C69.2262 16.7686 69.6488 16.9189 69.9639 17.2197C70.279 17.5205 70.4365 17.9036 70.4365 18.3691C70.4365 18.8418 70.2754 19.2285 69.9531 19.5293C69.638 19.8301 69.2191 19.9805 68.6963 19.9805C68.1735 19.9805 67.751 19.8301 67.4287 19.5293C67.1136 19.2285 66.9561 18.8418 66.9561 18.3691ZM75.6787 21.377L75.7754 22.7197C76.6061 21.6813 77.7197 21.1621 79.1162 21.1621C80.348 21.1621 81.2646 21.5238 81.8662 22.2471C82.4678 22.9704 82.7757 24.0518 82.79 25.4912V33H79.6855V25.5664C79.6855 24.9076 79.5423 24.4313 79.2559 24.1377C78.9694 23.8369 78.4932 23.6865 77.8271 23.6865C76.9535 23.6865 76.2982 24.0589 75.8613 24.8037V33H72.7568V21.377H75.6787ZM90.5029 33.2148C88.7985 33.2148 87.4092 32.6921 86.335 31.6465C85.2679 30.6009 84.7344 29.208 84.7344 27.4678V27.167C84.7344 25.9997 84.96 24.9577 85.4111 24.041C85.8623 23.1172 86.4997 22.4082 87.3232 21.9141C88.154 21.4128 89.0993 21.1621 90.1592 21.1621C91.749 21.1621 92.9987 21.6634 93.9082 22.666C94.8249 23.6686 95.2832 25.0902 95.2832 26.9307V28.1982H87.8818C87.9821 28.9574 88.2829 29.5661 88.7842 30.0244C89.2926 30.4827 89.9336 30.7119 90.707 30.7119C91.903 30.7119 92.8376 30.2786 93.5107 29.4121L95.0361 31.1201C94.5706 31.779 93.9404 32.2946 93.1455 32.667C92.3506 33.0322 91.4697 33.2148 90.5029 33.2148ZM90.1484 23.6758C89.5326 23.6758 89.0312 23.8835 88.6445 24.2988C88.265 24.7142 88.0215 25.3086 87.9141 26.082H92.2324V25.835C92.2181 25.1475 92.0319 24.6175 91.6738 24.2451C91.3158 23.8656 90.8073 23.6758 90.1484 23.6758ZM90.4277 16.5H93.8115L90.8359 19.8301H88.3115L90.4277 16.5Z" fill="white"/>
<path d="M117.463 17L106.704 30.9901L103 27.2712" stroke="white" stroke-width="2" stroke-miterlimit="10"/>
</svg>
