<svg width="181" height="141" viewBox="0 0 181 141" fill="none" xmlns="http://www.w3.org/2000/svg">
<path d="M73.2045 123.685H8.86364C3.97727 123.685 0 119.722 0 114.903V8.78154C0 3.94043 4 0 8.86364 0H172.136C177.023 0 181 3.96295 181 8.78154V114.903C181 119.744 177 123.685 172.136 123.685H107.818L90.5 141L73.2045 123.685Z" fill="#605F5F"/>
<path d="M19.15 17.14V9.148H16.324V17.14C16.324 18.1 16.132 18.808 15.748 19.264C15.364 19.708 14.668 19.93 13.66 19.93C13.084 19.93 12.622 19.852 12.274 19.696C11.938 19.528 11.674 19.318 11.482 19.066C11.29 18.802 11.164 18.502 11.104 18.166C11.044 17.83 11.014 17.488 11.014 17.14V9.148H8.188V17.14C8.188 18.892 8.662 20.188 9.61 21.028C10.57 21.868 11.92 22.288 13.66 22.288C15.376 22.288 16.72 21.868 17.692 21.028C18.664 20.176 19.15 18.88 19.15 17.14ZM29.4196 14.35V11.344H32.0656C32.3176 11.344 32.5576 11.368 32.7856 11.416C33.0256 11.452 33.2356 11.524 33.4156 11.632C33.5956 11.74 33.7396 11.89 33.8476 12.082C33.9556 12.274 34.0096 12.52 34.0096 12.82C34.0096 13.36 33.8476 13.75 33.5236 13.99C33.1996 14.23 32.7856 14.35 32.2816 14.35H29.4196ZM26.5936 9.148V22H32.8216C33.3976 22 33.9556 21.928 34.4956 21.784C35.0476 21.64 35.5336 21.418 35.9536 21.118C36.3856 20.818 36.7276 20.434 36.9796 19.966C37.2316 19.486 37.3576 18.922 37.3576 18.274C37.3576 17.47 37.1596 16.786 36.7636 16.222C36.3796 15.646 35.7916 15.244 34.9996 15.016C35.5756 14.74 36.0076 14.386 36.2956 13.954C36.5956 13.522 36.7456 12.982 36.7456 12.334C36.7456 11.734 36.6436 11.23 36.4396 10.822C36.2476 10.414 35.9716 10.09 35.6116 9.85C35.2516 9.598 34.8196 9.418 34.3156 9.31C33.8116 9.202 33.2536 9.148 32.6416 9.148H26.5936ZM29.4196 19.804V16.276H32.4976C33.1096 16.276 33.6016 16.42 33.9736 16.708C34.3456 16.984 34.5316 17.452 34.5316 18.112C34.5316 18.448 34.4716 18.724 34.3516 18.94C34.2436 19.156 34.0936 19.33 33.9016 19.462C33.7096 19.582 33.4876 19.672 33.2356 19.732C32.9836 19.78 32.7196 19.804 32.4436 19.804H29.4196ZM38.8894 15.556C38.9254 14.956 39.0754 14.458 39.3394 14.062C39.6034 13.666 39.9394 13.348 40.3474 13.108C40.7554 12.868 41.2114 12.7 41.7154 12.604C42.2314 12.496 42.7474 12.442 43.2634 12.442C43.7314 12.442 44.2054 12.478 44.6854 12.55C45.1654 12.61 45.6034 12.736 45.9994 12.928C46.3954 13.12 46.7194 13.39 46.9714 13.738C47.2234 14.074 47.3494 14.524 47.3494 15.088V19.93C47.3494 20.35 47.3734 20.752 47.4214 21.136C47.4694 21.52 47.5534 21.808 47.6734 22H45.0814C45.0334 21.856 44.9914 21.712 44.9554 21.568C44.9314 21.412 44.9134 21.256 44.9014 21.1C44.4934 21.52 44.0134 21.814 43.4614 21.982C42.9094 22.15 42.3454 22.234 41.7694 22.234C41.3254 22.234 40.9114 22.18 40.5274 22.072C40.1434 21.964 39.8074 21.796 39.5194 21.568C39.2314 21.34 39.0034 21.052 38.8354 20.704C38.6794 20.356 38.6014 19.942 38.6014 19.462C38.6014 18.934 38.6914 18.502 38.8714 18.166C39.0634 17.818 39.3034 17.542 39.5914 17.338C39.8914 17.134 40.2274 16.984 40.5994 16.888C40.9834 16.78 41.3674 16.696 41.7514 16.636C42.1354 16.576 42.5134 16.528 42.8854 16.492C43.2574 16.456 43.5874 16.402 43.8754 16.33C44.1634 16.258 44.3914 16.156 44.5594 16.024C44.7274 15.88 44.8054 15.676 44.7934 15.412C44.7934 15.136 44.7454 14.92 44.6494 14.764C44.5654 14.596 44.4454 14.47 44.2894 14.386C44.1454 14.29 43.9714 14.23 43.7674 14.206C43.5754 14.17 43.3654 14.152 43.1374 14.152C42.6334 14.152 42.2374 14.26 41.9494 14.476C41.6614 14.692 41.4934 15.052 41.4454 15.556H38.8894ZM44.7934 17.446C44.6854 17.542 44.5474 17.62 44.3794 17.68C44.2234 17.728 44.0494 17.77 43.8574 17.806C43.6774 17.842 43.4854 17.872 43.2814 17.896C43.0774 17.92 42.8734 17.95 42.6694 17.986C42.4774 18.022 42.2854 18.07 42.0934 18.13C41.9134 18.19 41.7514 18.274 41.6074 18.382C41.4754 18.478 41.3674 18.604 41.2834 18.76C41.1994 18.916 41.1574 19.114 41.1574 19.354C41.1574 19.582 41.1994 19.774 41.2834 19.93C41.3674 20.086 41.4814 20.212 41.6254 20.308C41.7694 20.392 41.9374 20.452 42.1294 20.488C42.3214 20.524 42.5194 20.542 42.7234 20.542C43.2274 20.542 43.6174 20.458 43.8934 20.29C44.1694 20.122 44.3734 19.924 44.5054 19.696C44.6374 19.456 44.7154 19.216 44.7394 18.976C44.7754 18.736 44.7934 18.544 44.7934 18.4V17.446ZM49.3333 12.694V22H51.8893V17.806C51.8893 17.386 51.9313 16.996 52.0153 16.636C52.0993 16.276 52.2373 15.964 52.4293 15.7C52.6333 15.424 52.8973 15.208 53.2213 15.052C53.5453 14.896 53.9413 14.818 54.4093 14.818C54.5653 14.818 54.7273 14.83 54.8953 14.854C55.0633 14.866 55.2073 14.884 55.3273 14.908V12.532C55.1233 12.472 54.9373 12.442 54.7693 12.442C54.4453 12.442 54.1333 12.49 53.8333 12.586C53.5333 12.682 53.2513 12.82 52.9873 13C52.7233 13.168 52.4893 13.378 52.2853 13.63C52.0813 13.87 51.9193 14.134 51.7993 14.422H51.7633V12.694H49.3333ZM7.666 36.242H10.114C10.114 35.906 10.144 35.57 10.204 35.234C10.276 34.886 10.39 34.574 10.546 34.298C10.702 34.01 10.906 33.782 11.158 33.614C11.422 33.434 11.74 33.344 12.112 33.344C12.664 33.344 13.114 33.518 13.462 33.866C13.822 34.202 14.002 34.676 14.002 35.288C14.002 35.672 13.912 36.014 13.732 36.314C13.564 36.614 13.348 36.884 13.084 37.124C12.832 37.364 12.55 37.586 12.238 37.79C11.926 37.982 11.632 38.174 11.356 38.366C10.816 38.738 10.3 39.104 9.808 39.464C9.328 39.824 8.908 40.22 8.548 40.652C8.188 41.072 7.9 41.552 7.684 42.092C7.48 42.632 7.378 43.268 7.378 44H16.63V41.804H10.672C10.984 41.372 11.344 40.994 11.752 40.67C12.16 40.346 12.58 40.046 13.012 39.77C13.444 39.482 13.87 39.194 14.29 38.906C14.722 38.618 15.106 38.3 15.442 37.952C15.778 37.592 16.048 37.184 16.252 36.728C16.456 36.272 16.558 35.726 16.558 35.09C16.558 34.478 16.438 33.926 16.198 33.434C15.97 32.942 15.658 32.528 15.262 32.192C14.866 31.856 14.404 31.598 13.876 31.418C13.36 31.238 12.814 31.148 12.238 31.148C11.482 31.148 10.81 31.28 10.222 31.544C9.646 31.796 9.166 32.156 8.782 32.624C8.398 33.08 8.11 33.62 7.918 34.244C7.726 34.856 7.642 35.522 7.666 36.242ZM24.058 44V31.4H22.024C21.952 31.88 21.802 32.282 21.574 32.606C21.346 32.93 21.064 33.194 20.728 33.398C20.404 33.59 20.032 33.728 19.612 33.812C19.204 33.884 18.778 33.914 18.334 33.902V35.828H21.502V44H24.058ZM27.9759 31.148V44H30.5319V39.122C30.5319 38.174 30.6879 37.496 30.9999 37.088C31.3119 36.668 31.8159 36.458 32.5119 36.458C33.1239 36.458 33.5499 36.65 33.7899 37.034C34.0299 37.406 34.1499 37.976 34.1499 38.744V44H36.7059V38.276C36.7059 37.7 36.6519 37.178 36.5439 36.71C36.4479 36.23 36.2739 35.828 36.0219 35.504C35.7699 35.168 35.4219 34.91 34.9779 34.73C34.5459 34.538 33.9879 34.442 33.3039 34.442C32.8239 34.442 32.3319 34.568 31.8279 34.82C31.3239 35.06 30.9099 35.45 30.5859 35.99H30.5319V31.148H27.9759ZM43.6376 37.988V40.184H49.0556V37.988H43.6376ZM55.6894 36.242H58.1374C58.1374 35.906 58.1674 35.57 58.2274 35.234C58.2994 34.886 58.4134 34.574 58.5694 34.298C58.7254 34.01 58.9294 33.782 59.1814 33.614C59.4454 33.434 59.7634 33.344 60.1354 33.344C60.6874 33.344 61.1374 33.518 61.4854 33.866C61.8454 34.202 62.0254 34.676 62.0254 35.288C62.0254 35.672 61.9354 36.014 61.7554 36.314C61.5874 36.614 61.3714 36.884 61.1074 37.124C60.8554 37.364 60.5734 37.586 60.2614 37.79C59.9494 37.982 59.6554 38.174 59.3794 38.366C58.8394 38.738 58.3234 39.104 57.8314 39.464C57.3514 39.824 56.9314 40.22 56.5714 40.652C56.2114 41.072 55.9234 41.552 55.7074 42.092C55.5034 42.632 55.4014 43.268 55.4014 44H64.6534V41.804H58.6954C59.0074 41.372 59.3674 40.994 59.7754 40.67C60.1834 40.346 60.6034 40.046 61.0354 39.77C61.4674 39.482 61.8934 39.194 62.3134 38.906C62.7454 38.618 63.1294 38.3 63.4654 37.952C63.8014 37.592 64.0714 37.184 64.2754 36.728C64.4794 36.272 64.5814 35.726 64.5814 35.09C64.5814 34.478 64.4614 33.926 64.2214 33.434C63.9934 32.942 63.6814 32.528 63.2854 32.192C62.8894 31.856 62.4274 31.598 61.8994 31.418C61.3834 31.238 60.8374 31.148 60.2614 31.148C59.5054 31.148 58.8334 31.28 58.2454 31.544C57.6694 31.796 57.1894 32.156 56.8054 32.624C56.4214 33.08 56.1334 33.62 55.9414 34.244C55.7494 34.856 55.6654 35.522 55.6894 36.242ZM65.9974 31.148V44H68.5534V39.122C68.5534 38.174 68.7094 37.496 69.0214 37.088C69.3334 36.668 69.8374 36.458 70.5334 36.458C71.1454 36.458 71.5714 36.65 71.8114 37.034C72.0514 37.406 72.1714 37.976 72.1714 38.744V44H74.7274V38.276C74.7274 37.7 74.6734 37.178 74.5654 36.71C74.4694 36.23 74.2954 35.828 74.0434 35.504C73.7914 35.168 73.4434 34.91 72.9994 34.73C72.5674 34.538 72.0094 34.442 71.3254 34.442C70.8454 34.442 70.3534 34.568 69.8494 34.82C69.3454 35.06 68.9314 35.45 68.6074 35.99H68.5534V31.148H65.9974ZM8.242 53.148V66H11.068V60.456H16.27V66H19.096V53.148H16.27V58.08H11.068V53.148H8.242ZM23.9418 55.254V53.148H21.3858V55.254H23.9418ZM21.3858 56.694V66H23.9418V56.694H21.3858ZM30.6524 64.326C30.2444 64.326 29.8964 64.242 29.6084 64.074C29.3204 63.906 29.0864 63.69 28.9064 63.426C28.7384 63.15 28.6124 62.832 28.5284 62.472C28.4564 62.112 28.4204 61.746 28.4204 61.374C28.4204 60.99 28.4564 60.618 28.5284 60.258C28.6004 59.898 28.7204 59.58 28.8884 59.304C29.0684 59.028 29.2964 58.806 29.5724 58.638C29.8604 58.458 30.2144 58.368 30.6344 58.368C31.0424 58.368 31.3844 58.458 31.6604 58.638C31.9484 58.806 32.1824 59.034 32.3624 59.322C32.5424 59.598 32.6684 59.916 32.7404 60.276C32.8244 60.636 32.8664 61.002 32.8664 61.374C32.8664 61.746 32.8304 62.112 32.7584 62.472C32.6864 62.832 32.5604 63.15 32.3804 63.426C32.2124 63.69 31.9844 63.906 31.6964 64.074C31.4204 64.242 31.0724 64.326 30.6524 64.326ZM25.9544 56.694V69.258H28.5104V64.848H28.5464C28.8584 65.304 29.2544 65.652 29.7344 65.892C30.2264 66.12 30.7604 66.234 31.3364 66.234C32.0204 66.234 32.6144 66.102 33.1184 65.838C33.6344 65.574 34.0604 65.22 34.3964 64.776C34.7444 64.332 35.0024 63.822 35.1704 63.246C35.3384 62.67 35.4224 62.07 35.4224 61.446C35.4224 60.786 35.3384 60.156 35.1704 59.556C35.0024 58.944 34.7444 58.41 34.3964 57.954C34.0484 57.498 33.6104 57.132 33.0824 56.856C32.5544 56.58 31.9244 56.442 31.1924 56.442C30.6164 56.442 30.0884 56.556 29.6084 56.784C29.1284 57.012 28.7324 57.378 28.4204 57.882H28.3844V56.694H25.9544ZM36.9403 59.988V62.184H42.3583V59.988H36.9403ZM44.2884 53.148V66H46.8444V61.122C46.8444 60.174 47.0004 59.496 47.3124 59.088C47.6244 58.668 48.1284 58.458 48.8244 58.458C49.4364 58.458 49.8624 58.65 50.1024 59.034C50.3424 59.406 50.4624 59.976 50.4624 60.744V66H53.0184V60.276C53.0184 59.7 52.9644 59.178 52.8564 58.71C52.7604 58.23 52.5864 57.828 52.3344 57.504C52.0824 57.168 51.7344 56.91 51.2904 56.73C50.8584 56.538 50.3004 56.442 49.6164 56.442C49.1364 56.442 48.6444 56.568 48.1404 56.82C47.6364 57.06 47.2224 57.45 46.8984 57.99H46.8444V53.148H44.2884ZM57.2263 61.356C57.2263 60.984 57.2623 60.618 57.3343 60.258C57.4063 59.898 57.5263 59.58 57.6943 59.304C57.8743 59.028 58.1083 58.806 58.3963 58.638C58.6843 58.458 59.0443 58.368 59.4763 58.368C59.9083 58.368 60.2683 58.458 60.5563 58.638C60.8563 58.806 61.0903 59.028 61.2583 59.304C61.4383 59.58 61.5643 59.898 61.6363 60.258C61.7083 60.618 61.7443 60.984 61.7443 61.356C61.7443 61.728 61.7083 62.094 61.6363 62.454C61.5643 62.802 61.4383 63.12 61.2583 63.408C61.0903 63.684 60.8563 63.906 60.5563 64.074C60.2683 64.242 59.9083 64.326 59.4763 64.326C59.0443 64.326 58.6843 64.242 58.3963 64.074C58.1083 63.906 57.8743 63.684 57.6943 63.408C57.5263 63.12 57.4063 62.802 57.3343 62.454C57.2623 62.094 57.2263 61.728 57.2263 61.356ZM54.6703 61.356C54.6703 62.1 54.7843 62.772 55.0123 63.372C55.2403 63.972 55.5643 64.488 55.9843 64.92C56.4043 65.34 56.9083 65.664 57.4963 65.892C58.0843 66.12 58.7443 66.234 59.4763 66.234C60.2083 66.234 60.8683 66.12 61.4563 65.892C62.0563 65.664 62.5663 65.34 62.9863 64.92C63.4063 64.488 63.7303 63.972 63.9583 63.372C64.1863 62.772 64.3003 62.1 64.3003 61.356C64.3003 60.612 64.1863 59.94 63.9583 59.34C63.7303 58.728 63.4063 58.212 62.9863 57.792C62.5663 57.36 62.0563 57.03 61.4563 56.802C60.8683 56.562 60.2083 56.442 59.4763 56.442C58.7443 56.442 58.0843 56.562 57.4963 56.802C56.9083 57.03 56.4043 57.36 55.9843 57.792C55.5643 58.212 55.2403 58.728 55.0123 59.34C54.7843 59.94 54.6703 60.612 54.6703 61.356ZM70.6602 64.326C70.2522 64.326 69.9042 64.242 69.6162 64.074C69.3282 63.906 69.0942 63.69 68.9142 63.426C68.7462 63.15 68.6202 62.832 68.5362 62.472C68.4642 62.112 68.4282 61.746 68.4282 61.374C68.4282 60.99 68.4642 60.618 68.5362 60.258C68.6082 59.898 68.7282 59.58 68.8962 59.304C69.0762 59.028 69.3042 58.806 69.5802 58.638C69.8682 58.458 70.2222 58.368 70.6422 58.368C71.0502 58.368 71.3922 58.458 71.6682 58.638C71.9562 58.806 72.1902 59.034 72.3702 59.322C72.5502 59.598 72.6762 59.916 72.7482 60.276C72.8322 60.636 72.8742 61.002 72.8742 61.374C72.8742 61.746 72.8382 62.112 72.7662 62.472C72.6942 62.832 72.5682 63.15 72.3882 63.426C72.2202 63.69 71.9922 63.906 71.7042 64.074C71.4282 64.242 71.0802 64.326 70.6602 64.326ZM65.9622 56.694V69.258H68.5182V64.848H68.5542C68.8662 65.304 69.2622 65.652 69.7422 65.892C70.2342 66.12 70.7682 66.234 71.3442 66.234C72.0282 66.234 72.6222 66.102 73.1262 65.838C73.6422 65.574 74.0682 65.22 74.4042 64.776C74.7522 64.332 75.0102 63.822 75.1782 63.246C75.3462 62.67 75.4302 62.07 75.4302 61.446C75.4302 60.786 75.3462 60.156 75.1782 59.556C75.0102 58.944 74.7522 58.41 74.4042 57.954C74.0562 57.498 73.6182 57.132 73.0902 56.856C72.5622 56.58 71.9322 56.442 71.2002 56.442C70.6242 56.442 70.0962 56.556 69.6162 56.784C69.1362 57.012 68.7402 57.378 68.4282 57.882H68.3922V56.694H65.9622ZM14.056 87V74.4H12.022C11.95 74.88 11.8 75.282 11.572 75.606C11.344 75.93 11.062 76.194 10.726 76.398C10.402 76.59 10.03 76.728 9.61 76.812C9.202 76.884 8.776 76.914 8.332 76.902V78.828H11.5V87H14.056ZM26.002 76.506V74.4H18.964L17.722 81.366H20.026C20.278 81.018 20.548 80.766 20.836 80.61C21.124 80.442 21.496 80.358 21.952 80.358C22.3 80.358 22.606 80.418 22.87 80.538C23.134 80.658 23.362 80.826 23.554 81.042C23.746 81.258 23.89 81.51 23.986 81.798C24.082 82.086 24.13 82.392 24.13 82.716C24.13 83.028 24.076 83.334 23.968 83.634C23.872 83.922 23.728 84.18 23.536 84.408C23.356 84.624 23.128 84.804 22.852 84.948C22.588 85.08 22.288 85.146 21.952 85.146C21.376 85.146 20.902 84.978 20.53 84.642C20.158 84.294 19.942 83.832 19.882 83.256H17.326C17.338 83.916 17.47 84.498 17.722 85.002C17.986 85.494 18.334 85.908 18.766 86.244C19.198 86.58 19.69 86.832 20.242 87C20.806 87.156 21.394 87.234 22.006 87.234C22.642 87.246 23.242 87.144 23.806 86.928C24.37 86.7 24.862 86.382 25.282 85.974C25.714 85.566 26.056 85.086 26.308 84.534C26.56 83.97 26.686 83.364 26.686 82.716C26.686 82.128 26.596 81.576 26.416 81.06C26.248 80.532 25.996 80.076 25.66 79.692C25.336 79.308 24.934 79.002 24.454 78.774C23.974 78.546 23.422 78.432 22.798 78.432C22.294 78.432 21.844 78.51 21.448 78.666C21.052 78.81 20.68 79.056 20.332 79.404L20.296 79.368L20.8 76.506H26.002ZM28.0839 84.228V87H30.9099V84.228H28.0839ZM32.9677 80.988V83.184H38.3857V80.988H32.9677Z" fill="white"/>
<g clip-path="url(#clip0)">
<path d="M11.5029 98.0133C12.6038 98.0133 13.4962 97.1149 13.4962 96.0066C13.4962 94.8984 12.6038 94 11.5029 94C10.402 94 9.50952 94.8984 9.50952 96.0066C9.50952 97.1149 10.402 98.0133 11.5029 98.0133Z" fill="white"/>
<path d="M13.8343 108.451H9.1657C8.52456 108.451 8 107.923 8 107.278V99.4918C8 98.8464 8.52456 98.3184 9.1657 98.3184H13.8343C14.4754 98.3184 15 98.8464 15 99.4918V107.278C15 107.923 14.4754 108.451 13.8343 108.451Z" fill="white"/>
<path d="M12.8376 103.388H10.209V117H12.8376V103.388Z" fill="white"/>
</g>
<g clip-path="url(#clip1)">
<path d="M21.5029 98.0133C22.6038 98.0133 23.4962 97.1149 23.4962 96.0066C23.4962 94.8984 22.6038 94 21.5029 94C20.402 94 19.5095 94.8984 19.5095 96.0066C19.5095 97.1149 20.402 98.0133 21.5029 98.0133Z" fill="white"/>
<path d="M23.8343 108.451H19.1657C18.5246 108.451 18 107.923 18 107.278V99.4918C18 98.8464 18.5246 98.3184 19.1657 98.3184H23.8343C24.4754 98.3184 25 98.8464 25 99.4918V107.278C25 107.923 24.4754 108.451 23.8343 108.451Z" fill="white"/>
<path d="M22.8376 103.388H20.209V117H22.8376V103.388Z" fill="white"/>
</g>
<defs>
<clipPath id="clip0">
<rect width="7" height="23" fill="white" transform="translate(8 94)"/>
</clipPath>
<clipPath id="clip1">
<rect width="7" height="23" fill="white" transform="translate(18 94)"/>
</clipPath>
</defs>
</svg>
