<?xml version="1.0" encoding="utf-8"?>
<!-- Generator: Adobe Illustrator 22.0.1, SVG Export Plug-In . SVG Version: 6.00 Build 0)  -->
<svg version="1.1" id="Calque_1" xmlns="http://www.w3.org/2000/svg" xmlns:xlink="http://www.w3.org/1999/xlink" x="0px" y="0px"
	 viewBox="0 0 51.1 52.8" style="enable-background:new 0 0 51.1 52.8;" xml:space="preserve">
<style type="text/css">
	.st0{fill:#730FF4;}
</style>
<g>
	<path class="st0" d="M16.8,43.4c-2.7-1.5-4.9-3.6-6.5-6.2C8.8,34.5,8,31.5,8,28.3c0-3.3,0.8-6.2,2.3-8.9c1.6-2.6,3.7-4.7,6.5-6.2
		c2.7-1.5,5.8-2.2,9.2-2.2c3.4,0,6.5,0.7,9.2,2.2c2.7,1.5,4.9,3.6,6.4,6.2C43.2,22,44,25,44,28.3c0,3.3-0.8,6.2-2.3,8.9
		c-1.5,2.6-3.7,4.7-6.4,6.2c-2.7,1.5-5.8,2.2-9.2,2.2C22.6,45.6,19.6,44.9,16.8,43.4z M32.8,39.6c2-1.1,3.5-2.7,4.7-4.7
		c1.1-2,1.7-4.2,1.7-6.7c0-2.5-0.6-4.7-1.7-6.7c-1.1-2-2.7-3.5-4.7-4.7c-2-1.1-4.2-1.7-6.7-1.7c-2.5,0-4.7,0.6-6.7,1.7
		c-2,1.1-3.6,2.7-4.7,4.7c-1.1,2-1.7,4.2-1.7,6.7c0,2.5,0.6,4.7,1.7,6.7c1.1,2,2.7,3.5,4.7,4.7c2,1.1,4.3,1.7,6.7,1.7
		C28.5,41.3,30.8,40.7,32.8,39.6z"/>
	<circle class="st0" cx="26" cy="28.3" r="5.4"/>
</g>
</svg>
