<svg width="60" height="59" viewBox="0 0 60 59" fill="none" xmlns="http://www.w3.org/2000/svg">
<path d="M14.6457 55.4078C10.0787 52.8307 6.45669 49.2872 3.93701 44.7773C1.25984 40.2673 0 35.2742 0 29.6367C0 24.1604 1.25984 19.0062 3.93701 14.4962C6.61417 9.98629 10.0787 6.44277 14.6457 3.86566C19.2126 1.28855 24.4095 0 30.0787 0C35.748 0 40.7874 1.28855 45.3543 3.86566C49.9213 6.44277 53.5433 9.98629 56.063 14.3352C58.5827 18.8451 60 23.8383 60 29.4757C60 35.1131 58.7402 40.1062 56.063 44.6162C53.5433 49.1261 49.9213 52.6696 45.3543 55.0857C40.7874 57.6628 35.748 58.9513 30.0787 58.9513C24.4095 59.2735 19.2126 57.9849 14.6457 55.4078ZM41.2598 49.1261C44.5669 47.1933 47.0866 44.6162 49.1338 41.2337C51.0236 37.8513 51.9685 34.1467 51.9685 29.9589C51.9685 25.7711 51.0236 22.0665 49.1338 18.684C47.2441 15.3016 44.5669 12.7245 41.2598 10.7916C37.9527 8.85881 34.1732 7.89239 30.0787 7.89239C25.9843 7.89239 22.2047 8.85881 18.8976 10.7916C15.5905 12.7245 12.9134 15.3016 11.0236 18.684C9.13386 22.0665 8.18897 25.7711 8.18897 29.9589C8.18897 34.1467 9.13386 37.8513 11.0236 41.2337C12.9134 44.6162 15.5905 47.1933 18.8976 49.1261C22.2047 51.059 25.9843 52.0254 30.0787 52.0254C34.1732 52.0254 37.9527 51.059 41.2598 49.1261Z" fill="#730FF4"/>
<path d="M30 38C34.9706 38 39 34.1944 39 29.5C39 24.8056 34.9706 21 30 21C25.0294 21 21 24.8056 21 29.5C21 34.1944 25.0294 38 30 38Z" fill="#730FF4"/>
</svg>
