<?xml version="1.0" encoding="utf-8"?>
<!-- Generator: Adobe Illustrator 22.0.1, SVG Export Plug-In . SVG Version: 6.00 Build 0)  -->
<svg version="1.1" id="Calque_1" xmlns="http://www.w3.org/2000/svg" xmlns:xlink="http://www.w3.org/1999/xlink" x="0px" y="0px"
	 viewBox="0 0 249.8 71.4" style="enable-background:new 0 0 249.8 71.4;" xml:space="preserve">
<style type="text/css">
	.st0{fill:#FFFFFF;}
	.st1{fill:#730FF4;}
</style>
<g>
	<path class="st0" d="M26.8,22v11.8h17V38h-17v13.7h-4.8V17.8h23.9V22H26.8z"/>
	<path class="st0" d="M51.5,20.2c-0.6-0.6-0.9-1.3-0.9-2.1s0.3-1.6,0.9-2.2c0.6-0.6,1.3-0.9,2.2-0.9c0.9,0,1.7,0.3,2.2,0.8
		c0.6,0.6,0.9,1.3,0.9,2.1c0,0.9-0.3,1.6-0.9,2.2c-0.6,0.6-1.3,0.9-2.2,0.9C52.9,21.1,52.1,20.8,51.5,20.2z M51.5,26h4.6v25.6h-4.6
		V26z"/>
	<path class="st0" d="M86.4,28.6c1.9,1.9,2.9,4.7,2.9,8.3v14.8h-4.6V37.4c0-2.5-0.6-4.4-1.8-5.6c-1.2-1.3-2.9-1.9-5.1-1.9
		c-2.5,0-4.5,0.7-5.9,2.2c-1.5,1.5-2.2,3.6-2.2,6.3v13.2H65V26h4.5v3.9c0.9-1.3,2.2-2.3,3.8-3c1.6-0.7,3.4-1.1,5.4-1.1
		C81.9,25.8,84.5,26.7,86.4,28.6z"/>
	<path class="st0" d="M122.2,15.5v35.9h-4.5v-4.1c-1,1.4-2.3,2.5-3.9,3.2c-1.6,0.7-3.3,1.1-5.2,1.1c-2.5,0-4.7-0.5-6.7-1.6
		c-2-1.1-3.5-2.6-4.6-4.6c-1.1-2-1.7-4.3-1.7-6.8c0-2.6,0.6-4.9,1.7-6.8c1.1-2,2.7-3.5,4.6-4.6c2-1.1,4.2-1.6,6.7-1.6
		c1.8,0,3.5,0.3,5.1,1c1.5,0.7,2.8,1.7,3.9,3.1V15.5H122.2z M113.4,46.4c1.3-0.8,2.4-1.8,3.1-3.2c0.7-1.4,1.1-2.9,1.1-4.7
		c0-1.8-0.4-3.3-1.1-4.7c-0.7-1.4-1.8-2.4-3.1-3.2c-1.3-0.7-2.8-1.1-4.4-1.1c-1.6,0-3.1,0.4-4.4,1.1c-1.3,0.7-2.3,1.8-3.1,3.2
		c-0.8,1.4-1.1,2.9-1.1,4.7c0,1.8,0.4,3.3,1.1,4.7c0.8,1.4,1.8,2.4,3.1,3.2c1.3,0.8,2.8,1.1,4.4,1.1
		C110.7,47.6,112.1,47.2,113.4,46.4z"/>
</g>
<path class="st0" d="M205,25.7v25.6h-4.4v-3.9c-0.9,1.3-2.2,2.3-3.7,3.1c-1.5,0.7-3.2,1.1-5,1.1c-3.4,0-6.1-0.9-8.1-2.8
	c-2-1.9-3-4.7-3-8.3V25.7h4.6v14.2c0,2.5,0.6,4.4,1.8,5.6c1.2,1.3,2.9,1.9,5.1,1.9c2.5,0,4.4-0.7,5.8-2.2c1.4-1.5,2.1-3.6,2.1-6.3
	V25.7H205z"/>
<path class="st0" d="M227.7,49.9c-0.7,0.6-1.5,1-2.5,1.3s-2,0.5-3.1,0.5c-2.6,0-4.6-0.7-6-2.1c-1.4-1.4-2.1-3.4-2.1-6V29.5h-4.4
	v-3.8h4.4v-5.6h4.6v5.6h7.4v3.8h-7.4v13.9c0,1.4,0.3,2.5,1,3.2s1.7,1.1,3,1.1c1.4,0,2.6-0.4,3.6-1.2L227.7,49.9z"/>
<g>
	<path class="st1" d="M146.6,49.4c-2.7-1.5-4.9-3.6-6.5-6.2c-1.6-2.6-2.3-5.6-2.3-8.9c0-3.3,0.8-6.2,2.3-8.9
		c1.6-2.6,3.7-4.7,6.5-6.2c2.7-1.5,5.8-2.2,9.2-2.2c3.4,0,6.5,0.7,9.2,2.2c2.7,1.5,4.9,3.6,6.4,6.2c1.5,2.6,2.3,5.6,2.3,8.9
		c0,3.3-0.8,6.2-2.3,8.9c-1.5,2.6-3.7,4.7-6.4,6.2c-2.7,1.5-5.8,2.2-9.2,2.2C152.4,51.6,149.4,50.9,146.6,49.4z M162.6,45.6
		c2-1.1,3.5-2.7,4.7-4.7c1.1-2,1.7-4.2,1.7-6.7c0-2.5-0.6-4.7-1.7-6.7c-1.1-2-2.7-3.5-4.7-4.7c-2-1.1-4.2-1.7-6.7-1.7
		c-2.5,0-4.7,0.6-6.7,1.7c-2,1.1-3.6,2.7-4.7,4.7c-1.1,2-1.7,4.2-1.7,6.7c0,2.5,0.6,4.7,1.7,6.7c1.1,2,2.7,3.5,4.7,4.7
		c2,1.1,4.3,1.7,6.7,1.7C158.3,47.3,160.6,46.8,162.6,45.6z"/>
	<circle class="st1" cx="155.8" cy="34.3" r="5.4"/>
</g>
</svg>
